<mxfile host="app.diagrams.net" modified="2024-10-25T01:49:09.143Z" agent="Mozilla/5.0 (Windows NT 10.0; Win64; x64; rv:131.0) Gecko/20100101 Firefox/131.0" etag="nTJ_m72DtB4sFulWnSE1" version="24.0.5" type="github">
  <diagram name="Page-1" id="Ok8qV3d31-Nbym6TxQx9">
    <mxGraphModel dx="2835" dy="851" grid="1" gridSize="10" guides="1" tooltips="1" connect="1" arrows="1" fold="1" page="1" pageScale="1" pageWidth="850" pageHeight="1100" math="0" shadow="0">
      <root>
        <mxCell id="0" />
        <mxCell id="1" parent="0" />
        <mxCell id="G6AB0k6eE7fZJw3R7lhR-38" value="Intranet Hub" style="swimlane;whiteSpace=wrap;html=1;strokeColor=#82b366;fillColor=#d5e8d4;" vertex="1" parent="1">
          <mxGeometry x="325" y="40" width="240" height="130" as="geometry" />
        </mxCell>
        <mxCell id="G6AB0k6eE7fZJw3R7lhR-43" value="" style="group" vertex="1" connectable="0" parent="1">
          <mxGeometry x="-20" y="260" width="930" height="300" as="geometry" />
        </mxCell>
        <mxCell id="G6AB0k6eE7fZJw3R7lhR-37" value="Subsites" style="swimlane;whiteSpace=wrap;html=1;strokeColor=#82b366;fillColor=#d5e8d4;" vertex="1" parent="G6AB0k6eE7fZJw3R7lhR-43">
          <mxGeometry width="930" height="180" as="geometry">
            <mxRectangle width="90" height="30" as="alternateBounds" />
          </mxGeometry>
        </mxCell>
        <mxCell id="G6AB0k6eE7fZJw3R7lhR-20" value="Flora" style="sketch=0;pointerEvents=1;shadow=0;dashed=0;html=1;strokeColor=#6c8ebf;fillColor=#dae8fc;labelPosition=center;verticalLabelPosition=top;verticalAlign=bottom;outlineConnect=0;align=center;shape=mxgraph.office.concepts.list_library;labelBackgroundColor=none;" vertex="1" parent="G6AB0k6eE7fZJw3R7lhR-37">
          <mxGeometry x="262.70214361140444" y="90" width="51.066525871172125" height="48" as="geometry" />
        </mxCell>
        <mxCell id="G6AB0k6eE7fZJw3R7lhR-21" value="GIS" style="sketch=0;pointerEvents=1;shadow=0;dashed=0;html=1;strokeColor=#6c8ebf;fillColor=#dae8fc;labelPosition=center;verticalLabelPosition=top;verticalAlign=bottom;outlineConnect=0;align=center;shape=mxgraph.office.concepts.list_library;labelBackgroundColor=none;" vertex="1" parent="G6AB0k6eE7fZJw3R7lhR-37">
          <mxGeometry x="320.64300950369585" y="90" width="51.066525871172125" height="48" as="geometry" />
        </mxCell>
        <mxCell id="G6AB0k6eE7fZJw3R7lhR-22" value="HSE" style="sketch=0;pointerEvents=1;shadow=0;dashed=0;html=1;strokeColor=#6c8ebf;fillColor=#dae8fc;labelPosition=center;verticalLabelPosition=top;verticalAlign=bottom;outlineConnect=0;align=center;shape=mxgraph.office.concepts.list_library;labelBackgroundColor=none;" vertex="1" parent="G6AB0k6eE7fZJw3R7lhR-37">
          <mxGeometry x="380.5479725448786" y="90" width="51.066525871172125" height="48" as="geometry" />
        </mxCell>
        <mxCell id="G6AB0k6eE7fZJw3R7lhR-23" value="Comms" style="sketch=0;pointerEvents=1;shadow=0;dashed=0;html=1;strokeColor=#6c8ebf;fillColor=#dae8fc;labelPosition=center;verticalLabelPosition=top;verticalAlign=bottom;outlineConnect=0;align=center;shape=mxgraph.office.concepts.list_library;labelBackgroundColor=none;" vertex="1" parent="G6AB0k6eE7fZJw3R7lhR-37">
          <mxGeometry x="438.48883843717" y="90" width="51.066525871172125" height="48" as="geometry" />
        </mxCell>
        <mxCell id="G6AB0k6eE7fZJw3R7lhR-24" value="&lt;div&gt;Admin&lt;/div&gt;" style="sketch=0;pointerEvents=1;shadow=0;dashed=0;html=1;strokeColor=#6c8ebf;fillColor=#dae8fc;labelPosition=center;verticalLabelPosition=top;verticalAlign=bottom;outlineConnect=0;align=center;shape=mxgraph.office.concepts.list_library;labelBackgroundColor=none;" vertex="1" parent="G6AB0k6eE7fZJw3R7lhR-37">
          <mxGeometry x="27.01048574445618" y="90" width="51.066525871172125" height="48" as="geometry" />
        </mxCell>
        <mxCell id="G6AB0k6eE7fZJw3R7lhR-25" value="Aquatic" style="sketch=0;pointerEvents=1;shadow=0;dashed=0;html=1;strokeColor=#6c8ebf;fillColor=#dae8fc;labelPosition=center;verticalLabelPosition=top;verticalAlign=bottom;outlineConnect=0;align=center;shape=mxgraph.office.concepts.list_library;labelBackgroundColor=none;" vertex="1" parent="G6AB0k6eE7fZJw3R7lhR-37">
          <mxGeometry x="84.95135163674762" y="90" width="51.066525871172125" height="48" as="geometry" />
        </mxCell>
        <mxCell id="G6AB0k6eE7fZJw3R7lhR-26" value="BNC" style="sketch=0;pointerEvents=1;shadow=0;dashed=0;html=1;strokeColor=#6c8ebf;fillColor=#dae8fc;labelPosition=center;verticalLabelPosition=top;verticalAlign=bottom;outlineConnect=0;align=center;shape=mxgraph.office.concepts.list_library;labelBackgroundColor=none;" vertex="1" parent="G6AB0k6eE7fZJw3R7lhR-37">
          <mxGeometry x="144.85631467793033" y="90" width="51.066525871172125" height="48" as="geometry" />
        </mxCell>
        <mxCell id="G6AB0k6eE7fZJw3R7lhR-27" value="EIA" style="sketch=0;pointerEvents=1;shadow=0;dashed=0;html=1;strokeColor=#6c8ebf;fillColor=#dae8fc;labelPosition=center;verticalLabelPosition=top;verticalAlign=bottom;outlineConnect=0;align=center;shape=mxgraph.office.concepts.list_library;labelBackgroundColor=none;" vertex="1" parent="G6AB0k6eE7fZJw3R7lhR-37">
          <mxGeometry x="202.79718057022174" y="90" width="51.066525871172125" height="48" as="geometry" />
        </mxCell>
        <mxCell id="G6AB0k6eE7fZJw3R7lhR-28" value="Subfauna" style="sketch=0;pointerEvents=1;shadow=0;dashed=0;html=1;strokeColor=#6c8ebf;fillColor=#dae8fc;labelPosition=center;verticalLabelPosition=top;verticalAlign=bottom;outlineConnect=0;align=center;shape=mxgraph.office.concepts.list_library;labelBackgroundColor=none;" vertex="1" parent="G6AB0k6eE7fZJw3R7lhR-37">
          <mxGeometry x="734.0854593453009" y="90" width="51.066525871172125" height="48" as="geometry" />
        </mxCell>
        <mxCell id="G6AB0k6eE7fZJw3R7lhR-29" value="Terres" style="sketch=0;pointerEvents=1;shadow=0;dashed=0;html=1;strokeColor=#6c8ebf;fillColor=#dae8fc;labelPosition=center;verticalLabelPosition=top;verticalAlign=bottom;outlineConnect=0;align=center;shape=mxgraph.office.concepts.list_library;labelBackgroundColor=none;" vertex="1" parent="G6AB0k6eE7fZJw3R7lhR-37">
          <mxGeometry x="792.0263252375925" y="90" width="51.066525871172125" height="48" as="geometry" />
        </mxCell>
        <mxCell id="G6AB0k6eE7fZJw3R7lhR-30" value="Vert" style="sketch=0;pointerEvents=1;shadow=0;dashed=0;html=1;strokeColor=#6c8ebf;fillColor=#dae8fc;labelPosition=center;verticalLabelPosition=top;verticalAlign=bottom;outlineConnect=0;align=center;shape=mxgraph.office.concepts.list_library;labelBackgroundColor=none;" vertex="1" parent="G6AB0k6eE7fZJw3R7lhR-37">
          <mxGeometry x="851.9312882787751" y="90" width="51.066525871172125" height="48" as="geometry" />
        </mxCell>
        <mxCell id="G6AB0k6eE7fZJw3R7lhR-32" value="Mob" style="sketch=0;pointerEvents=1;shadow=0;dashed=0;html=1;strokeColor=#6c8ebf;fillColor=#dae8fc;labelPosition=center;verticalLabelPosition=top;verticalAlign=bottom;outlineConnect=0;align=center;shape=mxgraph.office.concepts.list_library;labelBackgroundColor=none;" vertex="1" parent="G6AB0k6eE7fZJw3R7lhR-37">
          <mxGeometry x="498.39380147835266" y="90" width="51.066525871172125" height="48" as="geometry" />
        </mxCell>
        <mxCell id="G6AB0k6eE7fZJw3R7lhR-33" value="Molecular" style="sketch=0;pointerEvents=1;shadow=0;dashed=0;html=1;strokeColor=#6c8ebf;fillColor=#dae8fc;labelPosition=center;verticalLabelPosition=top;verticalAlign=bottom;outlineConnect=0;align=center;shape=mxgraph.office.concepts.list_library;labelBackgroundColor=none;" vertex="1" parent="G6AB0k6eE7fZJw3R7lhR-37">
          <mxGeometry x="556.3346673706442" y="90" width="51.066525871172125" height="48" as="geometry" />
        </mxCell>
        <mxCell id="G6AB0k6eE7fZJw3R7lhR-34" value="PnC" style="sketch=0;pointerEvents=1;shadow=0;dashed=0;html=1;strokeColor=#6c8ebf;fillColor=#dae8fc;labelPosition=center;verticalLabelPosition=top;verticalAlign=bottom;outlineConnect=0;align=center;shape=mxgraph.office.concepts.list_library;labelBackgroundColor=none;" vertex="1" parent="G6AB0k6eE7fZJw3R7lhR-37">
          <mxGeometry x="616.2396304118269" y="90" width="51.066525871172125" height="48" as="geometry" />
        </mxCell>
        <mxCell id="G6AB0k6eE7fZJw3R7lhR-35" value="Stats" style="sketch=0;pointerEvents=1;shadow=0;dashed=0;html=1;strokeColor=#6c8ebf;fillColor=#dae8fc;labelPosition=center;verticalLabelPosition=top;verticalAlign=bottom;outlineConnect=0;align=center;shape=mxgraph.office.concepts.list_library;labelBackgroundColor=none;" vertex="1" parent="G6AB0k6eE7fZJw3R7lhR-37">
          <mxGeometry x="674.1804963041184" y="90" width="51.066525871172125" height="48" as="geometry" />
        </mxCell>
        <mxCell id="G6AB0k6eE7fZJw3R7lhR-68" value="&lt;font color=&quot;#000000&quot;&gt;Team Rep&lt;br&gt;&lt;/font&gt;" style="html=1;verticalLabelPosition=bottom;align=center;labelBackgroundColor=#ffffff;verticalAlign=top;strokeWidth=2;strokeColor=#6D1F00;shadow=0;dashed=0;shape=mxgraph.ios7.icons.user;fontColor=#ffffff;fillColor=#a0522d;" vertex="1" parent="G6AB0k6eE7fZJw3R7lhR-37">
          <mxGeometry x="37.813020063357975" y="106" width="29.461457233368535" height="32" as="geometry" />
        </mxCell>
        <mxCell id="G6AB0k6eE7fZJw3R7lhR-69" value="&lt;font color=&quot;#000000&quot;&gt;Team Rep&lt;br&gt;&lt;/font&gt;" style="html=1;verticalLabelPosition=bottom;align=center;labelBackgroundColor=#ffffff;verticalAlign=top;strokeWidth=2;strokeColor=#6D1F00;shadow=0;dashed=0;shape=mxgraph.ios7.icons.user;fontColor=#ffffff;fillColor=#a0522d;" vertex="1" parent="G6AB0k6eE7fZJw3R7lhR-37">
          <mxGeometry x="95.75388595564942" y="106" width="29.461457233368535" height="32" as="geometry" />
        </mxCell>
        <mxCell id="G6AB0k6eE7fZJw3R7lhR-70" value="&lt;font color=&quot;#000000&quot;&gt;Team Rep&lt;br&gt;&lt;/font&gt;" style="html=1;verticalLabelPosition=bottom;align=center;labelBackgroundColor=#ffffff;verticalAlign=top;strokeWidth=2;strokeColor=#6D1F00;shadow=0;dashed=0;shape=mxgraph.ios7.icons.user;fontColor=#ffffff;fillColor=#a0522d;" vertex="1" parent="G6AB0k6eE7fZJw3R7lhR-37">
          <mxGeometry x="154.67680042238646" y="106" width="29.461457233368535" height="32" as="geometry" />
        </mxCell>
        <mxCell id="G6AB0k6eE7fZJw3R7lhR-71" value="&lt;font color=&quot;#000000&quot;&gt;Team Rep&lt;br&gt;&lt;/font&gt;" style="html=1;verticalLabelPosition=bottom;align=center;labelBackgroundColor=#ffffff;verticalAlign=top;strokeWidth=2;strokeColor=#6D1F00;shadow=0;dashed=0;shape=mxgraph.ios7.icons.user;fontColor=#ffffff;fillColor=#a0522d;" vertex="1" parent="G6AB0k6eE7fZJw3R7lhR-37">
          <mxGeometry x="212.61766631467793" y="106" width="29.461457233368535" height="32" as="geometry" />
        </mxCell>
        <mxCell id="G6AB0k6eE7fZJw3R7lhR-72" value="&lt;font color=&quot;#000000&quot;&gt;Team Rep&lt;br&gt;&lt;/font&gt;" style="html=1;verticalLabelPosition=bottom;align=center;labelBackgroundColor=#ffffff;verticalAlign=top;strokeWidth=2;strokeColor=#6D1F00;shadow=0;dashed=0;shape=mxgraph.ios7.icons.user;fontColor=#ffffff;fillColor=#a0522d;" vertex="1" parent="G6AB0k6eE7fZJw3R7lhR-37">
          <mxGeometry x="272.52262935586066" y="106" width="29.461457233368535" height="32" as="geometry" />
        </mxCell>
        <mxCell id="G6AB0k6eE7fZJw3R7lhR-73" value="&lt;font color=&quot;#000000&quot;&gt;Team Rep&lt;br&gt;&lt;/font&gt;" style="html=1;verticalLabelPosition=bottom;align=center;labelBackgroundColor=#ffffff;verticalAlign=top;strokeWidth=2;strokeColor=#6D1F00;shadow=0;dashed=0;shape=mxgraph.ios7.icons.user;fontColor=#ffffff;fillColor=#a0522d;" vertex="1" parent="G6AB0k6eE7fZJw3R7lhR-37">
          <mxGeometry x="330.46349524815207" y="106" width="29.461457233368535" height="32" as="geometry" />
        </mxCell>
        <mxCell id="G6AB0k6eE7fZJw3R7lhR-74" value="&lt;font color=&quot;#000000&quot;&gt;Team Rep&lt;br&gt;&lt;/font&gt;" style="html=1;verticalLabelPosition=bottom;align=center;labelBackgroundColor=#ffffff;verticalAlign=top;strokeWidth=2;strokeColor=#6D1F00;shadow=0;dashed=0;shape=mxgraph.ios7.icons.user;fontColor=#ffffff;fillColor=#a0522d;" vertex="1" parent="G6AB0k6eE7fZJw3R7lhR-37">
          <mxGeometry x="389.3864097148891" y="106" width="29.461457233368535" height="32" as="geometry" />
        </mxCell>
        <mxCell id="G6AB0k6eE7fZJw3R7lhR-75" value="&lt;font color=&quot;#000000&quot;&gt;Team Rep&lt;br&gt;&lt;/font&gt;" style="html=1;verticalLabelPosition=bottom;align=center;labelBackgroundColor=#ffffff;verticalAlign=top;strokeWidth=2;strokeColor=#6D1F00;shadow=0;dashed=0;shape=mxgraph.ios7.icons.user;fontColor=#ffffff;fillColor=#a0522d;" vertex="1" parent="G6AB0k6eE7fZJw3R7lhR-37">
          <mxGeometry x="447.3272756071806" y="106" width="29.461457233368535" height="32" as="geometry" />
        </mxCell>
        <mxCell id="G6AB0k6eE7fZJw3R7lhR-76" value="&lt;font color=&quot;#000000&quot;&gt;Team Rep&lt;br&gt;&lt;/font&gt;" style="html=1;verticalLabelPosition=bottom;align=center;labelBackgroundColor=#ffffff;verticalAlign=top;strokeWidth=2;strokeColor=#6D1F00;shadow=0;dashed=0;shape=mxgraph.ios7.icons.user;fontColor=#ffffff;fillColor=#a0522d;" vertex="1" parent="G6AB0k6eE7fZJw3R7lhR-37">
          <mxGeometry x="508.2142872228089" y="106" width="29.461457233368535" height="32" as="geometry" />
        </mxCell>
        <mxCell id="G6AB0k6eE7fZJw3R7lhR-77" value="&lt;font color=&quot;#000000&quot;&gt;Team Rep&lt;br&gt;&lt;/font&gt;" style="html=1;verticalLabelPosition=bottom;align=center;labelBackgroundColor=#ffffff;verticalAlign=top;strokeWidth=2;strokeColor=#6D1F00;shadow=0;dashed=0;shape=mxgraph.ios7.icons.user;fontColor=#ffffff;fillColor=#a0522d;" vertex="1" parent="G6AB0k6eE7fZJw3R7lhR-37">
          <mxGeometry x="566.1551531151005" y="106" width="29.461457233368535" height="32" as="geometry" />
        </mxCell>
        <mxCell id="G6AB0k6eE7fZJw3R7lhR-78" value="&lt;font color=&quot;#000000&quot;&gt;Team Rep&lt;br&gt;&lt;/font&gt;" style="html=1;verticalLabelPosition=bottom;align=center;labelBackgroundColor=#ffffff;verticalAlign=top;strokeWidth=2;strokeColor=#6D1F00;shadow=0;dashed=0;shape=mxgraph.ios7.icons.user;fontColor=#ffffff;fillColor=#a0522d;" vertex="1" parent="G6AB0k6eE7fZJw3R7lhR-37">
          <mxGeometry x="625.0780675818374" y="106" width="29.461457233368535" height="32" as="geometry" />
        </mxCell>
        <mxCell id="G6AB0k6eE7fZJw3R7lhR-79" value="&lt;font color=&quot;#000000&quot;&gt;Team Rep&lt;br&gt;&lt;/font&gt;" style="html=1;verticalLabelPosition=bottom;align=center;labelBackgroundColor=#ffffff;verticalAlign=top;strokeWidth=2;strokeColor=#6D1F00;shadow=0;dashed=0;shape=mxgraph.ios7.icons.user;fontColor=#ffffff;fillColor=#a0522d;" vertex="1" parent="G6AB0k6eE7fZJw3R7lhR-37">
          <mxGeometry x="683.0189334741289" y="106" width="29.461457233368535" height="32" as="geometry" />
        </mxCell>
        <mxCell id="G6AB0k6eE7fZJw3R7lhR-80" value="&lt;font color=&quot;#000000&quot;&gt;Team Rep&lt;br&gt;&lt;/font&gt;" style="html=1;verticalLabelPosition=bottom;align=center;labelBackgroundColor=#ffffff;verticalAlign=top;strokeWidth=2;strokeColor=#6D1F00;shadow=0;dashed=0;shape=mxgraph.ios7.icons.user;fontColor=#ffffff;fillColor=#a0522d;" vertex="1" parent="G6AB0k6eE7fZJw3R7lhR-37">
          <mxGeometry x="742.9238965153115" y="106" width="29.461457233368535" height="32" as="geometry" />
        </mxCell>
        <mxCell id="G6AB0k6eE7fZJw3R7lhR-81" value="&lt;font color=&quot;#000000&quot;&gt;Team Rep&lt;br&gt;&lt;/font&gt;" style="html=1;verticalLabelPosition=bottom;align=center;labelBackgroundColor=#ffffff;verticalAlign=top;strokeWidth=2;strokeColor=#6D1F00;shadow=0;dashed=0;shape=mxgraph.ios7.icons.user;fontColor=#ffffff;fillColor=#a0522d;" vertex="1" parent="G6AB0k6eE7fZJw3R7lhR-37">
          <mxGeometry x="800.864762407603" y="106" width="29.461457233368535" height="32" as="geometry" />
        </mxCell>
        <mxCell id="G6AB0k6eE7fZJw3R7lhR-82" value="&lt;font color=&quot;#000000&quot;&gt;Team Rep&lt;br&gt;&lt;/font&gt;" style="html=1;verticalLabelPosition=bottom;align=center;labelBackgroundColor=#ffffff;verticalAlign=top;strokeWidth=2;strokeColor=#6D1F00;shadow=0;dashed=0;shape=mxgraph.ios7.icons.user;fontColor=#ffffff;fillColor=#a0522d;" vertex="1" parent="G6AB0k6eE7fZJw3R7lhR-37">
          <mxGeometry x="859.78767687434" y="106" width="29.461457233368535" height="32" as="geometry" />
        </mxCell>
        <mxCell id="G6AB0k6eE7fZJw3R7lhR-45" value="Vercel" style="swimlane;whiteSpace=wrap;html=1;strokeColor=#6c8ebf;fillColor=#dae8fc;" vertex="1" parent="1">
          <mxGeometry x="1040" width="520" height="460" as="geometry" />
        </mxCell>
        <mxCell id="G6AB0k6eE7fZJw3R7lhR-54" style="edgeStyle=orthogonalEdgeStyle;rounded=0;orthogonalLoop=1;jettySize=auto;html=1;strokeColor=#C73500;fontColor=#E4FDE1;fillColor=#fa6800;exitX=0;exitY=0;exitDx=0;exitDy=15;exitPerimeter=0;" edge="1" parent="G6AB0k6eE7fZJw3R7lhR-45" source="G6AB0k6eE7fZJw3R7lhR-48">
          <mxGeometry relative="1" as="geometry">
            <mxPoint x="240" y="360" as="sourcePoint" />
            <mxPoint x="240" y="269" as="targetPoint" />
          </mxGeometry>
        </mxCell>
        <mxCell id="G6AB0k6eE7fZJw3R7lhR-48" value="BIOLOGIC DATABASE" style="shape=cylinder3;whiteSpace=wrap;html=1;boundedLbl=1;backgroundOutline=1;size=15;strokeColor=#82b366;fillColor=#d5e8d4;" vertex="1" parent="G6AB0k6eE7fZJw3R7lhR-45">
          <mxGeometry x="240" y="360" width="60" height="80" as="geometry" />
        </mxCell>
        <mxCell id="G6AB0k6eE7fZJw3R7lhR-50" value="" style="sketch=0;outlineConnect=0;fontColor=#232F3E;gradientColor=none;fillColor=#8C4FFF;strokeColor=none;dashed=0;verticalLabelPosition=bottom;verticalAlign=top;align=center;html=1;fontSize=12;fontStyle=0;aspect=fixed;pointerEvents=1;shape=mxgraph.aws4.edge_location;" vertex="1" parent="G6AB0k6eE7fZJw3R7lhR-45">
          <mxGeometry x="231" y="191" width="78" height="78" as="geometry" />
        </mxCell>
        <mxCell id="G6AB0k6eE7fZJw3R7lhR-57" style="edgeStyle=orthogonalEdgeStyle;rounded=0;orthogonalLoop=1;jettySize=auto;html=1;strokeColor=#005700;fontColor=#E4FDE1;fillColor=#008a00;exitX=1;exitY=0;exitDx=0;exitDy=15;exitPerimeter=0;entryX=1;entryY=0;entryDx=0;entryDy=15;entryPerimeter=0;" edge="1" parent="G6AB0k6eE7fZJw3R7lhR-45" target="G6AB0k6eE7fZJw3R7lhR-48">
          <mxGeometry relative="1" as="geometry">
            <mxPoint x="300" y="269" as="sourcePoint" />
            <mxPoint x="300" y="375" as="targetPoint" />
          </mxGeometry>
        </mxCell>
        <mxCell id="G6AB0k6eE7fZJw3R7lhR-59" value="Total Synergy" style="shape=cylinder3;whiteSpace=wrap;html=1;boundedLbl=1;backgroundOutline=1;size=15;strokeColor=#6c8ebf;fillColor=#dae8fc;" vertex="1" parent="G6AB0k6eE7fZJw3R7lhR-45">
          <mxGeometry x="390" y="80" width="60" height="80" as="geometry" />
        </mxCell>
        <mxCell id="G6AB0k6eE7fZJw3R7lhR-60" style="edgeStyle=orthogonalEdgeStyle;rounded=0;orthogonalLoop=1;jettySize=auto;html=1;strokeColor=#005700;fontColor=#E4FDE1;fillColor=#008a00;exitX=0;exitY=0.5;exitDx=0;exitDy=0;exitPerimeter=0;" edge="1" parent="G6AB0k6eE7fZJw3R7lhR-45" source="G6AB0k6eE7fZJw3R7lhR-59" target="G6AB0k6eE7fZJw3R7lhR-50">
          <mxGeometry relative="1" as="geometry" />
        </mxCell>
        <mxCell id="G6AB0k6eE7fZJw3R7lhR-62" style="edgeStyle=orthogonalEdgeStyle;rounded=0;orthogonalLoop=1;jettySize=auto;html=1;strokeColor=#005700;fontColor=#E4FDE1;fillColor=#008a00;" edge="1" parent="G6AB0k6eE7fZJw3R7lhR-45" source="G6AB0k6eE7fZJw3R7lhR-61" target="G6AB0k6eE7fZJw3R7lhR-50">
          <mxGeometry relative="1" as="geometry" />
        </mxCell>
        <mxCell id="G6AB0k6eE7fZJw3R7lhR-61" value="Fulcrum" style="shape=cylinder3;whiteSpace=wrap;html=1;boundedLbl=1;backgroundOutline=1;size=15;strokeColor=#b85450;fillColor=#f8cecc;" vertex="1" parent="G6AB0k6eE7fZJw3R7lhR-45">
          <mxGeometry x="390" y="190" width="60" height="80" as="geometry" />
        </mxCell>
        <mxCell id="G6AB0k6eE7fZJw3R7lhR-51" value="Sharepoint" style="swimlane;whiteSpace=wrap;html=1;strokeColor=#82b366;fillColor=#d5e8d4;" vertex="1" parent="1">
          <mxGeometry x="-20" width="930" height="440" as="geometry" />
        </mxCell>
        <mxCell id="G6AB0k6eE7fZJw3R7lhR-64" value="" style="sketch=0;pointerEvents=1;shadow=0;dashed=0;html=1;strokeColor=none;fillColor=#505050;labelPosition=center;verticalLabelPosition=bottom;verticalAlign=top;outlineConnect=0;align=center;shape=mxgraph.office.concepts.list_library;fontColor=#E4FDE1;" vertex="1" parent="G6AB0k6eE7fZJw3R7lhR-51">
          <mxGeometry x="439" y="90" width="52" height="48" as="geometry" />
        </mxCell>
        <mxCell id="G6AB0k6eE7fZJw3R7lhR-86" style="edgeStyle=orthogonalEdgeStyle;rounded=0;orthogonalLoop=1;jettySize=auto;html=1;strokeColor=#005700;fontColor=#E4FDE1;fillColor=#008a00;" edge="1" parent="G6AB0k6eE7fZJw3R7lhR-51" source="G6AB0k6eE7fZJw3R7lhR-66">
          <mxGeometry relative="1" as="geometry">
            <mxPoint x="340" y="120" as="targetPoint" />
          </mxGeometry>
        </mxCell>
        <mxCell id="G6AB0k6eE7fZJw3R7lhR-87" style="edgeStyle=orthogonalEdgeStyle;rounded=0;orthogonalLoop=1;jettySize=auto;html=1;strokeColor=#005700;fontColor=#E4FDE1;fillColor=#008a00;" edge="1" parent="G6AB0k6eE7fZJw3R7lhR-51" source="G6AB0k6eE7fZJw3R7lhR-66">
          <mxGeometry relative="1" as="geometry">
            <mxPoint x="30" y="250" as="targetPoint" />
          </mxGeometry>
        </mxCell>
        <mxCell id="G6AB0k6eE7fZJw3R7lhR-66" value="&lt;font color=&quot;#000000&quot;&gt;User View&lt;br&gt;&lt;/font&gt;" style="html=1;verticalLabelPosition=bottom;align=center;labelBackgroundColor=#ffffff;verticalAlign=top;strokeWidth=2;strokeColor=#006EAF;shadow=0;dashed=0;shape=mxgraph.ios7.icons.user;fontColor=#ffffff;fillColor=#1ba1e2;" vertex="1" parent="G6AB0k6eE7fZJw3R7lhR-51">
          <mxGeometry x="70" y="90" width="60" height="61" as="geometry" />
        </mxCell>
        <mxCell id="G6AB0k6eE7fZJw3R7lhR-67" value="&lt;font color=&quot;#000000&quot;&gt;Owners&lt;/font&gt;" style="html=1;verticalLabelPosition=bottom;align=center;labelBackgroundColor=#ffffff;verticalAlign=top;strokeWidth=2;strokeColor=#006EAF;shadow=0;dashed=0;shape=mxgraph.ios7.icons.user;fontColor=#ffffff;fillColor=#1ba1e2;" vertex="1" parent="G6AB0k6eE7fZJw3R7lhR-51">
          <mxGeometry x="440.5" y="186" width="49" height="50" as="geometry" />
        </mxCell>
        <mxCell id="G6AB0k6eE7fZJw3R7lhR-85" style="edgeStyle=orthogonalEdgeStyle;rounded=0;orthogonalLoop=1;jettySize=auto;html=1;entryX=0.5;entryY=0;entryDx=0;entryDy=0;strokeColor=#C73500;fontColor=#E4FDE1;fillColor=#fa6800;" edge="1" parent="G6AB0k6eE7fZJw3R7lhR-51">
          <mxGeometry relative="1" as="geometry">
            <mxPoint x="500" y="170" as="sourcePoint" />
            <mxPoint x="500" y="260" as="targetPoint" />
          </mxGeometry>
        </mxCell>
        <mxCell id="G6AB0k6eE7fZJw3R7lhR-39" style="edgeStyle=orthogonalEdgeStyle;rounded=0;orthogonalLoop=1;jettySize=auto;html=1;entryX=0.5;entryY=0;entryDx=0;entryDy=0;strokeColor=#005700;fontColor=#E4FDE1;fillColor=#008a00;" edge="1" parent="G6AB0k6eE7fZJw3R7lhR-51">
          <mxGeometry relative="1" as="geometry">
            <mxPoint x="420" y="260" as="sourcePoint" />
            <mxPoint x="420" y="170" as="targetPoint" />
          </mxGeometry>
        </mxCell>
        <mxCell id="G6AB0k6eE7fZJw3R7lhR-52" style="edgeStyle=orthogonalEdgeStyle;rounded=0;orthogonalLoop=1;jettySize=auto;html=1;entryX=1;entryY=0.5;entryDx=0;entryDy=0;strokeColor=#C73500;fontColor=#E4FDE1;fillColor=#fa6800;" edge="1" parent="1">
          <mxGeometry relative="1" as="geometry">
            <mxPoint x="1271" y="200" as="sourcePoint" />
            <mxPoint x="910" y="200" as="targetPoint" />
          </mxGeometry>
        </mxCell>
        <mxCell id="G6AB0k6eE7fZJw3R7lhR-58" style="edgeStyle=orthogonalEdgeStyle;rounded=0;orthogonalLoop=1;jettySize=auto;html=1;entryX=1;entryY=0.5;entryDx=0;entryDy=0;strokeColor=#005700;fontColor=#E4FDE1;fillColor=#008a00;" edge="1" parent="1">
          <mxGeometry relative="1" as="geometry">
            <mxPoint x="910" y="260" as="sourcePoint" />
            <mxPoint x="1271" y="260" as="targetPoint" />
          </mxGeometry>
        </mxCell>
        <mxCell id="G6AB0k6eE7fZJw3R7lhR-63" value="" style="shape=mxgraph.signs.transportation.highway;html=1;pointerEvents=1;fillColor=#000000;strokeColor=none;verticalLabelPosition=bottom;verticalAlign=top;align=center;fontColor=#E4FDE1;" vertex="1" parent="1">
          <mxGeometry x="940" y="181" width="68" height="98" as="geometry" />
        </mxCell>
      </root>
    </mxGraphModel>
  </diagram>
</mxfile>
